<?xml version="1.0" encoding="utf-8"?>
<!-- Generator: Adobe Illustrator 18.1.1, SVG Export Plug-In . SVG Version: 6.00 Build 0)  -->
<svg version="1.1" id="Слой_1" xmlns="http://www.w3.org/2000/svg" xmlns:xlink="http://www.w3.org/1999/xlink" x="0px" y="0px"
	 width="1139.4px" height="131.4px" viewBox="272 355.5 1139.4 131.4" enable-background="new 272 355.5 1139.4 131.4"
	 xml:space="preserve">
<g>
	<path fill="#CA7E7E" d="M1212.9,467h-0.8v-37.8c0-12-9.8-21.8-21.8-21.8h-45.8v-1.3c0-1-0.8-1.8-1.8-1.8h-1.4c-1,0-1.8,0.8-1.8,1.8
		v1.3h-2.6v-2.9h0.8c1,0,1.8-0.8,1.8-1.8v-1.3c0-1-0.8-1.8-1.8-1.8h-0.8v-51.4h-11.6v51.3h-0.8c-1,0-1.8,0.8-1.8,1.8v1.4
		c0,1,0.8,1.8,1.8,1.8h0.8v2.4h-2.5v-0.8c0-1-0.8-1.8-1.8-1.8h-1.4c-1,0-1.8,0.8-1.8,1.8v0.8h-29.5c-5.6,0-10.2-4.6-10.2-10.2v-48.4
		h-11.6v48.3c0,12,9.8,21.8,21.8,21.8h29.5v0.8c0,1,0.8,1.8,1.8,1.8h1.4c1,0,1.8-0.8,1.8-1.8v-0.8h2.5v2h-0.8c-1,0-1.8,0.8-1.8,1.8
		v1.3c0,1,0.8,1.8,1.8,1.8h0.8v28.5h-70.6V453c0-1-0.8-1.8-1.8-1.8h-1.4c-1,0-1.8,0.8-1.8,1.8v0.8h-2.2V453c0-1-0.8-1.8-1.8-1.8
		h-1.4c-1,0-1.8,0.8-1.8,1.8v0.8h-22.6c-12,0-21.8,9.8-21.8,21.8v25.3h11.6v-25.3c0-5.6,4.6-10.2,10.2-10.2h22.7v0.8
		c0,1,0.8,1.8,1.8,1.8h1.4c1,0,1.8-0.8,1.8-1.8v-0.7h2.2v0.8c0,1,0.8,1.8,1.8,1.8h1.4c1,0,1.8-0.8,1.8-1.8v-0.8h70.7v33.4h11.5
		v-73.4h0.8c1,0,1.8-0.8,1.8-1.8v-1.4c0-1-0.8-1.8-1.8-1.8h-0.8V419h2.6v0.3c0,1,0.8,1.8,1.8,1.8h1.4c1,0,1.8-0.8,1.8-1.8V419h45.8
		c5.6,0,10.2,4.6,10.2,10.2V467h-0.8c-1,0-1.8,0.8-1.8,1.8v1.4c0,1,0.8,1.8,1.8,1.8h0.8v26.2h11.6V472h0.8c1,0,1.8-0.8,1.8-1.8v-1.4
		C1214.8,467.8,1214,467,1212.9,467z"/>
	<path fill="#CA7E7E" d="M1357.7,395.8c1,0,1.8-0.8,1.8-1.8v-1.4c0-1-0.8-1.8-1.8-1.8h-0.8v-41.4h-11.6v41.5h-0.8
		c-1,0-1.8,0.8-1.8,1.8v1.4c0,1,0.8,1.8,1.8,1.8h0.8v2.2h-2.7v-1.3c0-1-0.8-1.8-1.8-1.8h-1.4c-1,0-1.8,0.8-1.8,1.8v1.3h-39.7
		c-5.6,0-10.2-4.6-10.2-10.2v-37.5H1276v37.5c0,12,9.8,21.8,21.8,21.8h39.7v0.4c0,1,0.8,1.8,1.8,1.8h1.4c1,0,1.8-0.8,1.8-1.8v-0.4
		h2.7v2.2h-1.2c-1,0-1.8,0.8-1.8,1.8v1.4c0,1,0.8,1.8,1.8,1.8h1.2v83.7h11.6v-83.9h0.5c1,0,1.8-0.8,1.8-1.8v-1.4
		c0-1-0.8-1.8-1.8-1.8h-0.5v-15.9L1357.7,395.8L1357.7,395.8z"/>
</g>
<g>
	<g>
		<path fill="#FFFFFF" d="M1113.2,428v-8.8h-25.3v8.8h-2.5v18.3h2.5V464c0,3.1,2.5,5.5,5.5,5.5h14.2c3.1,0,5.5-2.5,5.5-5.5v-17.7
			h2.5V428H1113.2z"/>
		<path fill="#FFFFFF" d="M1087.7,417.7h25.6c0.9,0,1.7-0.8,1.7-1.7v-0.2c0-0.9-0.8-1.7-1.7-1.7H1102v-2.4h-3v2.4h-11.4
			c-0.9,0-1.7,0.8-1.7,1.7v0.1C1085.9,416.9,1086.8,417.7,1087.7,417.7z"/>
		<path fill="#FFFFFF" d="M1100.6,410.4c5.5,0,9.9-4.5,9.9-9.9s-4.5-9.9-9.9-9.9c-5.5,0-9.9,4.5-9.9,9.9S1095.1,410.4,1100.6,410.4z
			 M1100.6,399.4L1100.6,399.4c0.8,0,1.5,0.6,1.5,1.4s-0.6,1.4-1.4,1.4c-0.8,0-1.4-0.6-1.4-1.4c0-0.2,0.1-0.5,0.2-0.6l-2.5-5
			L1100.6,399.4z"/>
	</g>
	<path fill="#FFFFFF" d="M1300.4,366.7h-21.3c-1,0-1.8,0.8-1.8,1.8v0.9c0,1,0.8,1.8,1.8,1.8h3.2v1.5c0,4.6-3.8,8.3-8.3,8.3h-4.4
		v-0.8c0-1-0.8-1.8-1.8-1.8h-0.9c-1,0-1.8,0.8-1.8,1.8v16.9c0,1,0.8,1.8,1.8,1.8h0.9c1,0,1.8-0.8,1.8-1.8v-0.8h4.4
		c13.1,0,23.7-10.6,23.7-23.7v-1.5h2.7c1,0,1.8-0.8,1.8-1.8v-0.9C1302.2,367.5,1301.4,366.7,1300.4,366.7z"/>
	<g>
		<path fill="#FFFFFF" d="M1247.3,411.7h-6.6v-0.1c0-0.8-0.7-1.4-1.5-1.4h-7.4v-1.8h11.4c0.9,0,1.7-0.8,1.7-1.7v-0.2
			c0-0.9-0.8-1.7-1.7-1.7h-25.7c-0.9,0-1.7,0.8-1.7,1.7v0.2c0,0.9,0.8,1.7,1.7,1.7h11.3v1.8h-7.4c-0.8,0-1.5,0.6-1.5,1.4h-6.5
			c-1.1,0-1.9,0.8-1.9,1.8s0.8,1.8,1.9,1.8h8.7c0.6,0,1.2-0.2,1.5-0.7h1c0.4,0.4,0.9,0.7,1.5,0.7h8.7c0.6,0,1.2-0.2,1.5-0.7h0.8
			c0.4,0.5,0.9,0.8,1.6,0.8h8.7c1.1,0,1.9-0.8,1.9-1.8C1249.3,412.5,1248.4,411.7,1247.3,411.7z"/>
		<path fill="#FFFFFF" d="M1228.7,418c0,0.5,0.8,0.9,1.6,0.9l0,0c0.9,0,1.6-0.5,1.6-0.9v-1.8h-3.2V418z"/>
		<path fill="#FFFFFF" d="M1245.5,379.9v-0.6h-2.5v-3.1c0-3.1-2.5-5.5-5.5-5.5h-14.2c-3.1,0-5.5,2.5-5.5,5.5v3.1h-2.5v0.6h-16.5
			v15.4h16.2v2.2h2.5v5.7h25.3v-5.7h2.5v-2.2h18.3v-15.4C1263.8,379.9,1245.5,379.9,1245.5,379.9z"/>
	</g>
	<g>
		<path fill="#FFFFFF" d="M1083.2,444.8h-17.6c-13.1,0-23.7-10.6-23.7-23.7v-69.9h15.4v69.9c0,4.6,3.8,8.3,8.3,8.3h17.6V444.8z"/>
	</g>
	<g>
		<path fill="#FFFFFF" d="M1379.5,443.4h-18.7V428h18.7c6.9,0,12.4-5.5,12.4-12.4v-65.2h15.4v65.2
			C1407.4,430.9,1394.9,443.4,1379.5,443.4z"/>
	</g>
	<g>
		<path fill="#FFFFFF" d="M1317.4,448.1v-4.7h-8.2v4.5c0.1,1.1,0.7,1.8,1.8,1.8h4.7C1316.7,449.7,1317.4,449.2,1317.4,448.1z"/>
		<rect x="1309.3" y="431.8" fill="#FFFFFF" width="8.2" height="10.6"/>
		<path fill="#FFFFFF" d="M1317.4,430.8v-4.5c-0.1-1.1-0.7-1.8-1.8-1.8h-4.7c-0.9,0.1-1.7,0.5-1.6,1.7v4.7
			C1309.3,430.8,1317.4,430.8,1317.4,430.8z"/>
		<path fill="#FFFFFF" d="M1351.1,442.5v4.5c0.1,1.1,0.7,1.8,1.8,1.8h4.7c0.9-0.1,1.7-0.5,1.6-1.7v-4.6H1351.1z"/>
		<rect x="1351.1" y="430.9" fill="#FFFFFF" width="8.2" height="10.6"/>
		<path fill="#FFFFFF" d="M1359.3,430v-4.5c-0.1-1.1-0.7-1.8-1.8-1.8h-4.7c-0.9,0.1-1.7,0.5-1.6,1.7v4.7
			C1351.2,430,1359.3,430,1359.3,430z"/>
		<path fill="#FFFFFF" d="M1321.7,451.8h25.3v-5.7h2.5v-18.3h-2.5v-3.1c0-3.1-2.5-5.5-5.5-5.5h-14.2c-3.1,0-5.5,2.5-5.5,5.5v3.1
			h-2.5v18.3h2.5L1321.7,451.8L1321.7,451.8z"/>
		<path fill="#FFFFFF" d="M1351.4,460.2h-6.6v-0.1c0-0.8-0.7-1.4-1.5-1.4h-7.4v-1.8h11.4c0.9,0,1.7-0.8,1.7-1.7V455
			c0-0.9-0.8-1.7-1.7-1.7h-25.7c-0.9,0-1.7,0.8-1.7,1.7v0.2c0,0.9,0.8,1.7,1.7,1.7h11.4v1.8h-7.4c-0.8,0-1.5,0.6-1.5,1.4h-6.5
			c-1.1,0-1.9,0.8-1.9,1.8s0.8,1.8,1.9,1.8h8.7c0.6,0,1.2-0.2,1.5-0.7h1c0.4,0.4,0.9,0.7,1.5,0.7h8.7c0.6,0,1.2-0.2,1.5-0.7h0.8
			c0.4,0.5,0.9,0.8,1.6,0.8h8.5c1.1,0,1.9-0.8,1.9-1.8C1353.4,460.9,1352.4,460.2,1351.4,460.2z"/>
		<path fill="#FFFFFF" d="M1332.7,466.4c0,0.5,0.8,0.9,1.6,0.9c0.8,0,1.6-0.5,1.6-0.9v-1.8h-3.2V466.4z"/>
		<path fill="#FFFFFF" d="M1290.3,426.3h-0.9c-1,0-1.8,0.8-1.8,1.8v0.8h-9.4c-13.1,0-23.7,10.6-23.7,23.7v9.2h-0.8
			c-1,0-1.8,0.8-1.8,1.8v0.9c0,1,0.8,1.8,1.8,1.8h16.9c1,0,1.8-0.8,1.8-1.8v-0.9c0-1-0.8-1.8-1.8-1.8h-0.8v-9.2
			c0-4.6,3.8-8.3,8.3-8.3h9.4v0.8c0,1,0.8,1.8,1.8,1.8h0.9c1,0,1.8-0.8,1.8-1.8v-16.9C1292,427.1,1291.3,426.3,1290.3,426.3z"/>
		<rect x="1254.5" y="467.7" fill="#FFFFFF" width="15.4" height="33.9"/>
		<rect x="1293.7" y="428.8" fill="#FFFFFF" width="14.1" height="15.4"/>
	</g>
	<path fill="#FFFFFF" d="M1183.1,429.4h-2.4v-11c-0.1-1.6,1.8-2.2,1.8-3.9v-3.3h-20.7v3.3c0,1.8,1.7,2.1,1.7,3.9v10.8h-10.7
		c-1.6,0.1-2.2-1.7-3.9-1.7h-3.3v19.4h3.3c1.8,0,2.1-1.5,3.9-1.5h8.3l-3.4,4.3c-0.9,1.3-2.6,0.6-3.7,2l-2.1,2.6l15.3,12l2.1-2.6
		c1.2-1.5,0.1-2.6,1.2-4l11-14.1h1.8c1.6-0.1,2.2,1.7,3.9,1.7h3.3v-19.5h-3.3C1185.1,427.8,1184.9,429.4,1183.1,429.4z"/>
	<polygon fill="#FFFFFF" points="1152.4,457.8 1164.4,466.6 1141.1,496 1129,487.9 	"/>
	<path fill="#FFFFFF" d="M1217.5,429.8h-25.3v15.4h25.3c4.6,0,8.3,3.8,8.3,8.3v46.8h15.4v-46.7
		C1241.2,440.5,1230.6,429.8,1217.5,429.8z"/>
	<path fill="#FFFFFF" d="M1195.1,377.5h-0.9c-1,0-1.8,0.8-1.8,1.8v0.8h-4.3c-13.1,0-23.7,10.6-23.7,23.7v1.5h-2.7
		c-1,0-1.8,0.8-1.8,1.8v0.9c0,1,0.8,1.8,1.8,1.8h21.3c1,0,1.8-0.8,1.8-1.8v-0.9c0-1-0.8-1.8-1.8-1.8h-3.2v-1.5
		c0-4.6,3.8-8.3,8.3-8.3h4.4v0.8c0,1,0.8,1.8,1.8,1.8h0.9c1,0,1.8-0.8,1.8-1.8v-16.9C1196.9,378.2,1196.1,377.5,1195.1,377.5z"/>
	<rect x="1117.8" y="429.1" fill="#FFFFFF" width="25.8" height="15.4"/>
</g>
<rect x="1282" y="331.1" fill="#FFFFFF" width="15.4" height="33.9"/>
</svg>
