<?xml version="1.0" encoding="utf-8"?>
<!-- Generator: Adobe Illustrator 18.1.1, SVG Export Plug-In . SVG Version: 6.00 Build 0)  -->
<svg version="1.1" id="Слой_1" xmlns="http://www.w3.org/2000/svg" xmlns:xlink="http://www.w3.org/1999/xlink" x="0px" y="0px"
	 width="487.3px" height="143.9px" viewBox="12.9 560.4 487.3 143.9" enable-background="new 12.9 560.4 487.3 143.9"
	 xml:space="preserve">
<g>
	<g>
		<path fill="#D24A43" d="M61.4,664.7c-3.8,0-6.9-2.1-7.9-5.5c-1.3-3.9-0.9-7.6,1.4-11.7c1.5-2.6,3.2-3.5,4.3-3.5
			c4-0.4,7.7-0.4,11.6-0.4h32.6c7.9,0,14.6-2.5,21.2-7.8c6.2-5.4,10.1-14.6,10.5-24.5c0.4-9.8-3.1-19.7-9.3-26.6
			c-5.2-5.9-11.6-9-19.1-9H43.9c11.8-8.7,25.7-13.4,40.3-13.5l0.7,0c18.4,0,36.4,7.5,49.4,20.6c12.9,13,19.8,30.3,19.7,48.7
			c0,11.9-2.9,23-8.5,33.2H61.4z"/>
		<path fill="#D24A43" d="M84.6,700.6c-18.5,0-35.9-7.3-49-20.6c-12.9-13-20.2-30.7-20-48.4c-0.1-11.2,2.7-22.4,8-32.4H107
			c2.4,0,3.7,0.8,4.7,2.8l0.4,0.8c1,1.9,2,4,2,5.7v0.1l0,0.1c0.3,2.4,0,4.4-0.7,7.3c-1,3.9-4.2,6.2-8.6,6.2H61.8
			c-12.6,0-22,6.1-27.2,17.5c-3.2,7.1-4.1,14.5-3,24l0,0.1l0,0.1c0.2,0.5,0.2,1,0.3,1.7c0.1,0.7,0.2,1.3,0.4,2l0,0.1l0.4,0.7
			c3.7,12.2,14.1,19.7,27.2,19.7h0.4c22.1-0.4,44.4-0.6,65.3-0.7C113.6,695.8,99.2,700.6,84.6,700.6z"/>
	</g>
	<g>
		<path d="M224.9,664.3c3.3,0,6.1-0.9,7.9-1.6v-10.9c-1,0.9-2.7,2-6.6,2c-9,0-11.5-6.4-11.5-10.9c0-6.9,4.8-11.4,10.8-11.4
			c9.6,0,10.7,8.7,10.7,14.4v17.5h10.9V645c0-20.5-13.5-24.2-21.3-24.2c-14.3,0-22,11.8-22,22.5
			C203.8,656.7,214.6,664.3,224.9,664.3z"/>
		<path d="M294.3,658.6v-12.7c0-6.3-0.3-13-5.5-18.7c-2.6-2.8-7.4-6.4-15.5-6.4c-14.6,0-21.9,11.7-21.9,21.6
			c0,8.2,4.2,14.9,10.7,18.4c3,1.6,6.4,2.5,9.7,2.5c2.4,0,5.2-0.6,8.1-2.8v-10.9c-2.3,2.8-5.4,3.2-7.3,3.2c-1.7,0-3.4-0.3-5-1.1
			c-3.1-1.5-5.4-4.9-5.4-9.4c0-6.8,5.2-10.8,10.7-10.8c3.5,0,6,1.4,7.8,3.6c2.6,3.2,2.6,6.8,2.6,10.2v13.1c0,3.8-0.3,9.3-3.3,10.6
			c-0.6,0.2-2.4,0.2-2.5,0.2H168.3v-23.5c0-5.3,1.1-14.3,10.6-14.3c6.4,0,10.9,4.4,10.9,11.4c0,7.7-5.4,11-11,11c-3,0-5.3-1.4-7.1-3
			v11c2.6,1.7,5,2.6,8.3,2.6c9.6,0,20.7-7.2,20.7-21.2c0-10.8-7.7-22.4-22.2-22.4c-10.7,0-21.2,6.6-21.2,24v24.3l-95.7,0
			c-5.8,0-10.5-3.3-12-8.7c-1.8-5.4-1.1-10.5,1.8-15.2c2.2-2.5,4.3-5.1,8.3-5.4c3.6,0,33-0.7,44.2-0.7c6.5,0,13-2.2,18.1-6.9
			c12-10.9,12-33.7,0.7-44.2c-4.3-4.3-10.1-6.9-16.3-6.9H37.4c-4.7,4-8.7,8.3-12.3,14.1h80.8c4,0,6.9,1.4,8.7,5.1
			c1.4,2.5,2.5,5.1,2.9,8c0.4,2.9,0,5.8-0.7,8.7c-1.4,5.8-6.9,9.4-13,9.4H61c-10.9,0-18.5,4.7-23.2,14.5c-3.3,6.9-3.6,13.8-2.5,21.4
			c0.4,1.1,0.7,2.5,1.1,3.6c2.9,9.8,11.2,17,23.2,17c25.6-0.2,51-0.3,76.4-0.4l139.7,0c4.9,0,9.7-3.3,11.7-5
			C294.2,672.1,294.3,664.9,294.3,658.6z"/>
		<path d="M308,662.1c2.7,1.5,5.8,2.2,8.9,2.2c2.7,0,5.4-0.5,7.8-1.7c3.2,1.9,9.4,1.4,9.4,1.4v-19.6v-22.6h-10.9v23.9
			c0,2.6-0.2,5.4-3.2,7.2c-0.9,0.6-2,0.9-3.1,0.9c-1.1,0-2.1-0.3-3.1-0.9c-3-1.8-3.2-4.5-3.2-7.2v-23.9h-10.9v22.5
			C299.8,650.9,300.1,657.7,308,662.1z"/>
		<path d="M360.9,664.3c9.5,0,17.7-5.3,21.7-14.3l-7.1-5.8c-2.2,6.1-7.3,10.3-13.4,10.3c-5.5,0-9.5-3.1-11.4-7
			c-0.9-1.7-1.4-3.7-1.4-5.6c0-2.1,0.3-4.3,1.3-6.1c1.4-2.7,4.6-5.9,10.1-5.9c1.7,0,5.6,0.4,8.3,3.2l-15.5,9.9l3.7,6.2l24.4-14.9
			c-3.5-8-10.8-13.7-20.8-13.7c-13.9,0-22.3,10.2-22.3,21.3C338.3,654.3,347.5,664.3,360.9,664.3z"/>
		<polygon points="397.8,646.4 411.9,646.4 411.9,663.3 422.9,663.3 422.9,621.8 411.9,621.8 411.9,637.3 397.8,637.3 397.8,621.8 
			386.8,621.8 386.8,663.3 397.8,663.3 		"/>
		<path d="M477.9,622.8c-5.6-3.2-15.1-3.2-21,4.4c-3.8-4.8-8.5-6.4-13-6.4c-2.8,0-5.6,0.7-8,2c-7.3,4.1-7.6,10.2-7.6,15.3v25.2h10.9
			v-25c0-5.3,3.8-6.9,6.1-6.9c1.8,0,6.1,0.9,6.1,7.9v24.1h10.9v-24.1c0-6.9,4.4-7.9,6.1-7.9c2.3,0,6.1,1.6,6.1,6.9v25h10.9v-25.2
			C485.5,633.1,485.3,626.9,477.9,622.8z"/>
		<path d="M287.8,682.5h197.5v-13.4H297.4C296.5,677.2,287.8,682.5,287.8,682.5z"/>
	</g>
</g>
</svg>
